# xmcd
#
# Track frame offsets: 
#        150
#        17508
#        31538
#        45446
#        60826
#        74031
#        87986
#        103771
#        123089
#        136631
#
# Disc length: 1979 seconds
#
# Revision: 0
# Processed by: cddbd v1.5.2PL0 Copyright (c) Steve Scherf et al.
# Submitted via: ExactAudioCopy v0.95b4
#
DISCID=7007b90a
DTITLE=Holly Dunn - Cornerstone
DYEAR=1987
DGENRE=Country
TTITLE0=Cornerstone
TTITLE1=Small Town (Are Smaller For Girls)
TTITLE2=Strangers Again
TTITLE3=Only When I Love
TTITLE4=Fewer Threads Than These
TTITLE5=Love Someone Like Me
TTITLE6=Lover's Cross
TTITLE7=Why Wyoming
TTITLE8=Wrap Me Up
TTITLE9=Little Frame House
EXTD=
EXTT0=
EXTT1=
EXTT2=
EXTT3=
EXTT4=
EXTT5=
EXTT6=
EXTT7=
EXTT8=
EXTT9=
PLAYORDER=
